<svg width="179" height="51" viewBox="0 0 179 51" fill="none" xmlns="http://www.w3.org/2000/svg">
<path d="M70.1955 38.7744V11.9619H84.0155C87.3257 11.9619 89.8635 12.5825 91.6289 13.8238C93.3944 15.0376 94.2771 16.803 94.2771 19.1201C94.2771 20.6097 93.9323 21.7959 93.2427 22.6786C92.553 23.5337 91.5876 24.182 90.3463 24.6233C89.1049 25.0371 87.6291 25.2991 85.9189 25.4095L86.0844 25.1612C87.3257 25.1888 88.4981 25.2991 89.6015 25.4922C90.7049 25.6578 91.6703 25.9612 92.4979 26.4025C93.353 26.8439 94.015 27.4646 94.484 28.2645C94.9805 29.0369 95.2288 30.0437 95.2288 31.2851C95.2288 32.9402 94.815 34.3056 93.9875 35.3814C93.1599 36.4572 92.0013 37.2848 90.5118 37.8641C89.0498 38.4158 87.3533 38.7192 85.4224 38.7744H70.1955ZM74.9539 34.7194H84.7603C86.5533 34.7194 87.9326 34.4159 88.898 33.8091C89.8911 33.1746 90.3876 32.1954 90.3876 30.8713C90.3876 29.8507 90.0842 29.1059 89.4773 28.6369C88.898 28.168 88.1257 27.8645 87.1602 27.7266C86.1947 27.5887 85.1879 27.5197 84.1397 27.5197H74.9539V34.7194ZM74.9539 23.5475H83.7259C85.5189 23.5475 86.8981 23.2441 87.8636 22.6372C88.8567 22.0028 89.3532 21.0235 89.3532 19.6994C89.3532 18.3753 88.8567 17.4375 87.8636 16.8858C86.8981 16.3065 85.6292 16.0168 84.0569 16.0168H74.9539V23.5475Z" fill="black"/>
<path d="M100.964 11.9619H105.764V38.7744H100.964V11.9619Z" fill="black"/>
<path d="M137.98 33.8091L136.49 34.3884V11.9619H141.29V38.7744H136.49L116.257 17.0513L117.705 16.472V38.7744H112.947V11.9619H117.705L137.98 33.8091Z" fill="black"/>
<path d="M162.344 39.2709C159.172 39.2709 156.399 38.7054 154.027 37.5744C151.682 36.4434 149.862 34.8435 148.565 32.7746C147.296 30.7058 146.662 28.2369 146.662 25.3681C146.662 22.4993 147.296 20.0304 148.565 17.9616C149.862 15.8651 151.682 14.2652 154.027 13.1618C156.399 12.0308 159.172 11.4653 162.344 11.4653C165.571 11.4653 168.343 12.0308 170.661 13.1618C173.005 14.2652 174.826 15.8651 176.122 17.9616C177.419 20.0304 178.067 22.4993 178.067 25.3681C178.067 28.2369 177.419 30.7058 176.122 32.7746C174.826 34.8435 173.005 36.4434 170.661 37.5744C168.343 38.7054 165.571 39.2709 162.344 39.2709ZM162.344 35.0504C164.44 35.0504 166.288 34.7056 167.888 34.016C169.516 33.2988 170.785 32.223 171.695 30.7885C172.633 29.3541 173.102 27.5473 173.102 25.3681C173.102 23.2165 172.633 21.4235 171.695 19.9891C170.785 18.5546 169.516 17.4788 167.888 16.7616C166.288 16.0444 164.44 15.6858 162.344 15.6858C160.275 15.6858 158.413 16.0444 156.758 16.7616C155.13 17.4788 153.848 18.5546 152.91 19.9891C151.972 21.4235 151.503 23.2165 151.503 25.3681C151.503 27.5473 151.972 29.3541 152.91 30.7885C153.848 32.223 155.13 33.2988 156.758 34.016C158.413 34.7056 160.275 35.0504 162.344 35.0504Z" fill="black"/>
<path d="M25.9028 12.7292H15.3704V23.2617H25.9028V12.7292Z" fill="black"/>
<path d="M11.1574 12.7292H0.625V23.2617H11.1574V12.7292Z" fill="black"/>
<path d="M11.1574 23.2615H0.625V33.7939H11.1574V23.2615Z" fill="black"/>
<path d="M38.5417 25.3682H28.0093V35.9006H38.5417V25.3682Z" fill="black"/>
<path d="M38.5417 40.1135H28.0093V50.6459H38.5417V40.1135Z" fill="black"/>
<path d="M28.0092 40.1135H17.4768V50.6459H28.0092V40.1135Z" fill="black"/>
<path d="M13.2639 10.6227V0.090332C6.27037 0.090332 0.625 5.7357 0.625 12.7292H11.1574C11.1574 11.5777 12.1123 10.6227 13.2639 10.6227Z" fill="black"/>
<path d="M25.9028 23.2615H15.3704C15.3704 30.255 21.0158 35.9004 28.0093 35.9004V25.368C26.8578 25.368 25.9028 24.4411 25.9028 23.2615Z" fill="black"/>
<path d="M13.2639 10.6227V0.090332C20.2574 0.090332 25.9028 5.7357 25.9028 12.7292H15.3704C15.3704 11.5777 14.4155 10.6227 13.2639 10.6227Z" fill="black"/>
<path d="M40.6482 38.0071H51.1806C51.1806 31.0135 45.5352 25.3682 38.5417 25.3682V35.9006C39.6932 35.9006 40.6482 36.8555 40.6482 38.0071Z" fill="black"/>
<path d="M40.6482 38.0068H51.1806C51.1806 45.0004 45.5352 50.6457 38.5417 50.6457V40.1133C39.6932 40.1133 40.6482 39.1865 40.6482 38.0068Z" fill="black"/>
<path d="M12 40.5347H0.625V50.6458H12V40.5347Z" fill="black"/>
</svg>
